<svg width="24" height="24" viewBox="0 0 24 24" fill="none" xmlns="http://www.w3.org/2000/svg"><path d="M6.27274 2C6.27274 2 11.6981 8.47407 12.5482 13.4111C13.6854 20.0074 11.9852 22 11.9852 22L5.94027 15.9741C5.9624 14.4926 5.72602 13.0182 5.24132 11.6148C4.45548 9.45185 2.53998 7.50741 2.53998 7.50741C2.53998 7.50741 5.08264 8.82222 6.45787 10.2148C7.4751 11.3514 8.40935 12.5569 9.25367 13.8222C9.25367 13.8222 9.82038 12.3815 8.95898 8.87037C8.27892 6.08519 6.27274 2 6.27274 2Z" fill="#B3B4D0"/><path d="M14.7728 17.0963C14.7925 18.157 14.8083 18.5336 14.8044 19.037L17.9006 15.9626C17.8787 14.4252 18.1268 12.8954 18.6342 11.4394C19.4546 9.20276 21.4543 7.18518 21.4543 7.18518C21.4543 7.18518 18.6026 8.40726 17.2892 9.95599C16.8196 10.4785 16.406 11.0464 16.0547 11.6508C15.1609 13.3309 14.7199 15.2046 14.7728 17.0963Z" fill="#6B6889"/><path d="M15.3059 8.41455C15.9038 5.52323 17.74 2 17.74 2C17.74 2 14.4456 5.82081 12.54 9.81061C13.4525 11.0386 14.1399 12.4051 14.5729 13.8519C14.5729 13.8519 14.8198 10.7695 15.3059 8.41455Z" fill="#6B6889"/></svg>