<svg width="24" height="24" viewBox="0 0 24 24" fill="none" xmlns="http://www.w3.org/2000/svg"><path d="M12.5959 9.63748L14.2882 18.4995L11.9739 20.3267L9.65948 18.4995L11.3516 9.63834L11.9778 10.273L12.5959 9.63748Z" fill="#B3B4D0"/><path d="M9.65946 3.66H14.2882L15.0597 4.85034L11.9817 8.42134L8.888 4.85034L9.65946 3.66Z" fill="#B3B4D0"/><path d="M2 6.83423H8.20932L9.946 8.58005L8.78882 12.9446L5.86864 11.5956L7.36196 9.29425C6.18142 9.29425 5.44749 9.2678 5.16016 9.2149C4.72916 9.13554 4.19643 8.87967 3.35921 8.21427C2.80107 7.77067 2.348 7.31066 2 6.83423Z" fill="#6B6889"/><path d="M22 6.86948C21.652 7.34591 21.1989 7.80592 20.6408 8.24952C19.8036 8.91492 19.2709 9.17079 18.8399 9.25015C18.5525 9.30305 17.8186 9.3295 16.6381 9.3295L18.1314 11.6308L15.2112 12.9799L14.054 8.6153L15.7907 6.86948H22Z" fill="#6B6889"/></svg>